# xmcd
#
# Track frame offsets: 
#        150
#        17348
#        36116
#        57233
#        71796
#        94658
#        115720
#        128095
#        140362
#        159905
#        175992
#        198100
#        216156
#
# Disc length: 3061 seconds
#
# Revision: 0
# Processed by: cddbd v1.5.2PL0 Copyright (c) Steve Scherf et al.
# Submitted via: ExactAudioCopyFreeDBPlugin 1.0
#
DISCID=a90bf30d
DTITLE=ABB the Average Blues Band - Hurt Too Much
DYEAR=1994
DGENRE=Blues
TTITLE0=Hurt Too Much
TTITLE1=Bank of Love
TTITLE2=Long, Long, Night
TTITLE3=Who's Been Talking
TTITLE4=Something You Do
TTITLE5=Taste of the Blues
TTITLE6=Too Bad To Boogie
TTITLE7=Too Smooth for the Blues
TTITLE8=Wrong Side of the Road
TTITLE9=Talk about Us
TTITLE10=Nobody's Child
TTITLE11=Dirty Weekend
TTITLE12=Highway to the Blues
EXTD=
EXTT0=
EXTT1=
EXTT2=
EXTT3=
EXTT4=
EXTT5=
EXTT6=
EXTT7=
EXTT8=
EXTT9=
EXTT10=
EXTT11=
EXTT12=
PLAYORDER=
